<?xml version="1.0" standalone="no"?><svg xmlns="http://www.w3.org/2000/svg" viewBox="0 0 1440 320"><path fill="#00cba9" fill-opacity="1" d="M0,0L20,5.3C40,11,80,21,120,74.7C160,128,200,224,240,250.7C280,277,320,235,360,181.3C400,128,440,64,480,48C520,32,560,64,600,80C640,96,680,96,720,85.3C760,75,800,53,840,74.7C880,96,920,160,960,192C1000,224,1040,224,1080,197.3C1120,171,1160,117,1200,101.3C1240,85,1280,107,1320,117.3C1360,128,1400,128,1420,128L1440,128L1440,320L1420,320C1400,320,1360,320,1320,320C1280,320,1240,320,1200,320C1160,320,1120,320,1080,320C1040,320,1000,320,960,320C920,320,880,320,840,320C800,320,760,320,720,320C680,320,640,320,600,320C560,320,520,320,480,320C440,320,400,320,360,320C320,320,280,320,240,320C200,320,160,320,120,320C80,320,40,320,20,320L0,320Z"></path></svg>