<?xml version="1.0" standalone="no"?><svg xmlns="http://www.w3.org/2000/svg" viewBox="0 0 1440 320"><path fill="#a2d9ff" fill-opacity="1" d="M0,64L24,96C48,128,96,192,144,218.7C192,245,240,235,288,218.7C336,203,384,181,432,160C480,139,528,117,576,128C624,139,672,181,720,176C768,171,816,117,864,122.7C912,128,960,192,1008,224C1056,256,1104,256,1152,213.3C1200,171,1248,85,1296,69.3C1344,53,1392,107,1416,133.3L1440,160L1440,320L1416,320C1392,320,1344,320,1296,320C1248,320,1200,320,1152,320C1104,320,1056,320,1008,320C960,320,912,320,864,320C816,320,768,320,720,320C672,320,624,320,576,320C528,320,480,320,432,320C384,320,336,320,288,320C240,320,192,320,144,320C96,320,48,320,24,320L0,320Z"></path></svg>