<?xml version="1.0" standalone="no"?><svg xmlns="http://www.w3.org/2000/svg" viewBox="0 0 1440 320"><path fill="#0099ff" fill-opacity="1" d="M0,64L13.3,90.7C26.7,117,53,171,80,213.3C106.7,256,133,288,160,272C186.7,256,213,192,240,144C266.7,96,293,64,320,90.7C346.7,117,373,203,400,202.7C426.7,203,453,117,480,90.7C506.7,64,533,96,560,106.7C586.7,117,613,107,640,96C666.7,85,693,75,720,85.3C746.7,96,773,128,800,144C826.7,160,853,160,880,154.7C906.7,149,933,139,960,154.7C986.7,171,1013,213,1040,213.3C1066.7,213,1093,171,1120,128C1146.7,85,1173,43,1200,53.3C1226.7,64,1253,128,1280,133.3C1306.7,139,1333,85,1360,80C1386.7,75,1413,117,1427,138.7L1440,160L1440,320L1426.7,320C1413.3,320,1387,320,1360,320C1333.3,320,1307,320,1280,320C1253.3,320,1227,320,1200,320C1173.3,320,1147,320,1120,320C1093.3,320,1067,320,1040,320C1013.3,320,987,320,960,320C933.3,320,907,320,880,320C853.3,320,827,320,800,320C773.3,320,747,320,720,320C693.3,320,667,320,640,320C613.3,320,587,320,560,320C533.3,320,507,320,480,320C453.3,320,427,320,400,320C373.3,320,347,320,320,320C293.3,320,267,320,240,320C213.3,320,187,320,160,320C133.3,320,107,320,80,320C53.3,320,27,320,13,320L0,320Z"></path></svg>